<mxfile host="Electron" modified="2025-05-09T17:19:29.560Z" agent="Mozilla/5.0 (Windows NT 10.0; Win64; x64) AppleWebKit/537.36 (KHTML, like Gecko) draw.io/24.6.4 Chrome/124.0.6367.207 Electron/30.0.6 Safari/537.36" etag="_8Di10NFCLZ-gpJigFdr" version="24.6.4" type="device">
  <diagram name="PÃ¡gina-1" id="-zVH7wra4wSJ4nItj-KG">
    <mxGraphModel dx="2595" dy="697" grid="0" gridSize="10" guides="1" tooltips="1" connect="1" arrows="1" fold="1" page="0" pageScale="1" pageWidth="827" pageHeight="1169" math="0" shadow="0">
      <root>
        <mxCell id="0" />
        <mxCell id="1" parent="0" />
        <mxCell id="qDiGHT9fKr-F-e3usDwU-3" value="AWS Cloud" style="points=[[0,0],[0.25,0],[0.5,0],[0.75,0],[1,0],[1,0.25],[1,0.5],[1,0.75],[1,1],[0.75,1],[0.5,1],[0.25,1],[0,1],[0,0.75],[0,0.5],[0,0.25]];outlineConnect=0;gradientColor=none;html=1;whiteSpace=wrap;fontSize=12;fontStyle=0;container=1;pointerEvents=0;collapsible=0;recursiveResize=0;shape=mxgraph.aws4.group;grIcon=mxgraph.aws4.group_aws_cloud_alt;strokeColor=#232F3E;fillColor=none;verticalAlign=top;align=left;spacingLeft=30;fontColor=#232F3E;dashed=0;" vertex="1" parent="1">
          <mxGeometry x="-1012" y="91" width="964" height="578" as="geometry" />
        </mxCell>
        <mxCell id="qDiGHT9fKr-F-e3usDwU-5" value="US-EAST-1" style="points=[[0,0],[0.25,0],[0.5,0],[0.75,0],[1,0],[1,0.25],[1,0.5],[1,0.75],[1,1],[0.75,1],[0.5,1],[0.25,1],[0,1],[0,0.75],[0,0.5],[0,0.25]];outlineConnect=0;gradientColor=none;html=1;whiteSpace=wrap;fontSize=12;fontStyle=0;container=1;pointerEvents=0;collapsible=0;recursiveResize=0;shape=mxgraph.aws4.group;grIcon=mxgraph.aws4.group_region;strokeColor=#00A4A6;fillColor=none;verticalAlign=top;align=left;spacingLeft=30;fontColor=#147EBA;dashed=1;" vertex="1" parent="qDiGHT9fKr-F-e3usDwU-3">
          <mxGeometry x="34" y="30" width="906" height="531" as="geometry" />
        </mxCell>
        <mxCell id="qDiGHT9fKr-F-e3usDwU-4" value="VPC (/16)" style="points=[[0,0],[0.25,0],[0.5,0],[0.75,0],[1,0],[1,0.25],[1,0.5],[1,0.75],[1,1],[0.75,1],[0.5,1],[0.25,1],[0,1],[0,0.75],[0,0.5],[0,0.25]];outlineConnect=0;gradientColor=none;html=1;whiteSpace=wrap;fontSize=12;fontStyle=0;container=1;pointerEvents=0;collapsible=0;recursiveResize=0;shape=mxgraph.aws4.group;grIcon=mxgraph.aws4.group_vpc2;strokeColor=#8C4FFF;fillColor=none;verticalAlign=top;align=left;spacingLeft=30;fontColor=#AAB7B8;dashed=0;" vertex="1" parent="qDiGHT9fKr-F-e3usDwU-5">
          <mxGeometry x="26" y="40" width="845" height="396" as="geometry" />
        </mxCell>
        <mxCell id="qDiGHT9fKr-F-e3usDwU-24" value="" style="group" vertex="1" connectable="0" parent="qDiGHT9fKr-F-e3usDwU-4">
          <mxGeometry x="77" y="58" width="692" height="322" as="geometry" />
        </mxCell>
        <mxCell id="qDiGHT9fKr-F-e3usDwU-26" value="" style="group" vertex="1" connectable="0" parent="qDiGHT9fKr-F-e3usDwU-24">
          <mxGeometry x="456" y="2" width="220" height="320" as="geometry" />
        </mxCell>
        <mxCell id="qDiGHT9fKr-F-e3usDwU-27" value="" style="rounded=1;arcSize=1;dashed=1;fillColor=none;gradientColor=none;dashPattern=1 1;strokeWidth=1;" vertex="1" parent="qDiGHT9fKr-F-e3usDwU-26">
          <mxGeometry width="220" height="320" as="geometry" />
        </mxCell>
        <mxCell id="qDiGHT9fKr-F-e3usDwU-28" value="Public subnet (/24)" style="points=[[0,0],[0.25,0],[0.5,0],[0.75,0],[1,0],[1,0.25],[1,0.5],[1,0.75],[1,1],[0.75,1],[0.5,1],[0.25,1],[0,1],[0,0.75],[0,0.5],[0,0.25]];outlineConnect=0;gradientColor=none;html=1;whiteSpace=wrap;fontSize=12;fontStyle=0;container=1;pointerEvents=0;collapsible=0;recursiveResize=0;shape=mxgraph.aws4.group;grIcon=mxgraph.aws4.group_security_group;grStroke=0;strokeColor=#7AA116;fillColor=#F2F6E8;verticalAlign=top;align=left;spacingLeft=30;fontColor=#248814;dashed=0;" vertex="1" parent="qDiGHT9fKr-F-e3usDwU-26">
          <mxGeometry x="11" y="177" width="199" height="130" as="geometry" />
        </mxCell>
        <mxCell id="qDiGHT9fKr-F-e3usDwU-29" value="" style="sketch=0;outlineConnect=0;fontColor=#232F3E;gradientColor=none;fillColor=#8C4FFF;strokeColor=none;dashed=0;verticalLabelPosition=bottom;verticalAlign=top;align=center;html=1;fontSize=12;fontStyle=0;aspect=fixed;pointerEvents=1;shape=mxgraph.aws4.nat_gateway;" vertex="1" parent="qDiGHT9fKr-F-e3usDwU-28">
          <mxGeometry x="128" y="49" width="54" height="54" as="geometry" />
        </mxCell>
        <mxCell id="qDiGHT9fKr-F-e3usDwU-30" value="Private subnet (/24)" style="points=[[0,0],[0.25,0],[0.5,0],[0.75,0],[1,0],[1,0.25],[1,0.5],[1,0.75],[1,1],[0.75,1],[0.5,1],[0.25,1],[0,1],[0,0.75],[0,0.5],[0,0.25]];outlineConnect=0;gradientColor=none;html=1;whiteSpace=wrap;fontSize=12;fontStyle=0;container=1;pointerEvents=0;collapsible=0;recursiveResize=0;shape=mxgraph.aws4.group;grIcon=mxgraph.aws4.group_security_group;grStroke=0;strokeColor=#00A4A6;fillColor=#E6F6F7;verticalAlign=top;align=left;spacingLeft=30;fontColor=#147EBA;dashed=0;" vertex="1" parent="qDiGHT9fKr-F-e3usDwU-26">
          <mxGeometry x="11" y="21" width="199" height="130" as="geometry" />
        </mxCell>
        <mxCell id="qDiGHT9fKr-F-e3usDwU-31" value="AZ - B" style="text;html=1;align=center;verticalAlign=middle;whiteSpace=wrap;rounded=0;" vertex="1" parent="qDiGHT9fKr-F-e3usDwU-30">
          <mxGeometry x="69" y="-25" width="60" height="30" as="geometry" />
        </mxCell>
        <mxCell id="qDiGHT9fKr-F-e3usDwU-32" value="NAT Gateway" style="text;html=1;align=center;verticalAlign=middle;whiteSpace=wrap;rounded=0;" vertex="1" parent="qDiGHT9fKr-F-e3usDwU-26">
          <mxGeometry x="126" y="277" width="84" height="30" as="geometry" />
        </mxCell>
        <mxCell id="qDiGHT9fKr-F-e3usDwU-33" value="&lt;font color=&quot;#030405&quot; style=&quot;font-size: 12px;&quot;&gt;EKS Pods&lt;/font&gt;" style="sketch=0;outlineConnect=0;fontColor=#232F3E;gradientColor=none;fillColor=#D45B07;strokeColor=none;dashed=0;verticalLabelPosition=bottom;verticalAlign=top;align=center;html=1;fontSize=14;fontStyle=0;aspect=fixed;pointerEvents=1;shape=mxgraph.aws4.instances;" vertex="1" parent="qDiGHT9fKr-F-e3usDwU-26">
          <mxGeometry x="92" y="80" width="37" height="37" as="geometry" />
        </mxCell>
        <mxCell id="qDiGHT9fKr-F-e3usDwU-34" value="&lt;font style=&quot;font-size: 12px;&quot;&gt;Volume&lt;/font&gt;" style="sketch=0;outlineConnect=0;fontColor=#000000;gradientColor=none;fillColor=#3F8624;strokeColor=none;dashed=0;verticalLabelPosition=bottom;verticalAlign=top;align=center;html=1;fontSize=12;fontStyle=0;aspect=fixed;pointerEvents=1;shape=mxgraph.aws4.volume;" vertex="1" parent="qDiGHT9fKr-F-e3usDwU-26">
          <mxGeometry x="157" y="80" width="30.33" height="38.16" as="geometry" />
        </mxCell>
        <mxCell id="qDiGHT9fKr-F-e3usDwU-35" value="&lt;font style=&quot;font-size: 12px;&quot;&gt;EC2 Node&lt;/font&gt;" style="outlineConnect=0;fontColor=#232F3E;gradientColor=#F78E04;gradientDirection=north;fillColor=#D86613;strokeColor=#ffffff;dashed=0;verticalLabelPosition=bottom;verticalAlign=top;align=center;html=1;fontSize=16;fontStyle=0;aspect=fixed;shape=mxgraph.aws4.resourceIcon;resIcon=mxgraph.aws4.ec2;fontFamily=Helvetica;" vertex="1" parent="qDiGHT9fKr-F-e3usDwU-26">
          <mxGeometry x="30" y="77" width="36.84" height="36.84" as="geometry" />
        </mxCell>
        <mxCell id="qDiGHT9fKr-F-e3usDwU-10" value="" style="rounded=1;arcSize=1;dashed=1;fillColor=none;gradientColor=none;dashPattern=1 1;strokeWidth=1;" vertex="1" parent="qDiGHT9fKr-F-e3usDwU-24">
          <mxGeometry width="220" height="320" as="geometry" />
        </mxCell>
        <mxCell id="qDiGHT9fKr-F-e3usDwU-6" value="Public subnet (/24)" style="points=[[0,0],[0.25,0],[0.5,0],[0.75,0],[1,0],[1,0.25],[1,0.5],[1,0.75],[1,1],[0.75,1],[0.5,1],[0.25,1],[0,1],[0,0.75],[0,0.5],[0,0.25]];outlineConnect=0;gradientColor=none;html=1;whiteSpace=wrap;fontSize=12;fontStyle=0;container=1;pointerEvents=0;collapsible=0;recursiveResize=0;shape=mxgraph.aws4.group;grIcon=mxgraph.aws4.group_security_group;grStroke=0;strokeColor=#7AA116;fillColor=#F2F6E8;verticalAlign=top;align=left;spacingLeft=30;fontColor=#248814;dashed=0;" vertex="1" parent="qDiGHT9fKr-F-e3usDwU-24">
          <mxGeometry x="11" y="177" width="199" height="130" as="geometry" />
        </mxCell>
        <mxCell id="qDiGHT9fKr-F-e3usDwU-12" value="" style="sketch=0;outlineConnect=0;fontColor=#232F3E;gradientColor=none;fillColor=#8C4FFF;strokeColor=none;dashed=0;verticalLabelPosition=bottom;verticalAlign=top;align=center;html=1;fontSize=12;fontStyle=0;aspect=fixed;pointerEvents=1;shape=mxgraph.aws4.nat_gateway;" vertex="1" parent="qDiGHT9fKr-F-e3usDwU-6">
          <mxGeometry x="128" y="51" width="54" height="54" as="geometry" />
        </mxCell>
        <mxCell id="qDiGHT9fKr-F-e3usDwU-8" value="Private subnet (/24)" style="points=[[0,0],[0.25,0],[0.5,0],[0.75,0],[1,0],[1,0.25],[1,0.5],[1,0.75],[1,1],[0.75,1],[0.5,1],[0.25,1],[0,1],[0,0.75],[0,0.5],[0,0.25]];outlineConnect=0;gradientColor=none;html=1;whiteSpace=wrap;fontSize=12;fontStyle=0;container=1;pointerEvents=0;collapsible=0;recursiveResize=0;shape=mxgraph.aws4.group;grIcon=mxgraph.aws4.group_security_group;grStroke=0;strokeColor=#00A4A6;fillColor=#E6F6F7;verticalAlign=top;align=left;spacingLeft=30;fontColor=#147EBA;dashed=0;" vertex="1" parent="qDiGHT9fKr-F-e3usDwU-24">
          <mxGeometry x="11" y="21" width="199" height="130" as="geometry" />
        </mxCell>
        <mxCell id="qDiGHT9fKr-F-e3usDwU-11" value="AZ - A" style="text;html=1;align=center;verticalAlign=middle;whiteSpace=wrap;rounded=0;" vertex="1" parent="qDiGHT9fKr-F-e3usDwU-8">
          <mxGeometry x="69" y="-25" width="60" height="30" as="geometry" />
        </mxCell>
        <mxCell id="qDiGHT9fKr-F-e3usDwU-13" value="NAT Gateway" style="text;html=1;align=center;verticalAlign=middle;whiteSpace=wrap;rounded=0;" vertex="1" parent="qDiGHT9fKr-F-e3usDwU-24">
          <mxGeometry x="126" y="277" width="84" height="30" as="geometry" />
        </mxCell>
        <mxCell id="qDiGHT9fKr-F-e3usDwU-17" value="&lt;font color=&quot;#030405&quot; style=&quot;font-size: 12px;&quot;&gt;EKS Pods&lt;/font&gt;" style="sketch=0;outlineConnect=0;fontColor=#232F3E;gradientColor=none;fillColor=#D45B07;strokeColor=none;dashed=0;verticalLabelPosition=bottom;verticalAlign=top;align=center;html=1;fontSize=14;fontStyle=0;aspect=fixed;pointerEvents=1;shape=mxgraph.aws4.instances;" vertex="1" parent="qDiGHT9fKr-F-e3usDwU-24">
          <mxGeometry x="92" y="80" width="37" height="37" as="geometry" />
        </mxCell>
        <mxCell id="qDiGHT9fKr-F-e3usDwU-19" value="&lt;font style=&quot;font-size: 12px;&quot;&gt;Volume&lt;/font&gt;" style="sketch=0;outlineConnect=0;fontColor=#000000;gradientColor=none;fillColor=#3F8624;strokeColor=none;dashed=0;verticalLabelPosition=bottom;verticalAlign=top;align=center;html=1;fontSize=12;fontStyle=0;aspect=fixed;pointerEvents=1;shape=mxgraph.aws4.volume;" vertex="1" parent="qDiGHT9fKr-F-e3usDwU-24">
          <mxGeometry x="157" y="80" width="30.33" height="38.16" as="geometry" />
        </mxCell>
        <mxCell id="qDiGHT9fKr-F-e3usDwU-20" value="&lt;font style=&quot;font-size: 12px;&quot;&gt;EC2 Node&lt;/font&gt;" style="outlineConnect=0;fontColor=#232F3E;gradientColor=#F78E04;gradientDirection=north;fillColor=#D86613;strokeColor=#ffffff;dashed=0;verticalLabelPosition=bottom;verticalAlign=top;align=center;html=1;fontSize=16;fontStyle=0;aspect=fixed;shape=mxgraph.aws4.resourceIcon;resIcon=mxgraph.aws4.ec2;fontFamily=Helvetica;" vertex="1" parent="qDiGHT9fKr-F-e3usDwU-24">
          <mxGeometry x="30" y="77" width="36.84" height="36.84" as="geometry" />
        </mxCell>
        <mxCell id="qDiGHT9fKr-F-e3usDwU-50" value="" style="group" vertex="1" connectable="0" parent="qDiGHT9fKr-F-e3usDwU-24">
          <mxGeometry x="-15" y="50" width="705" height="96" as="geometry" />
        </mxCell>
        <mxCell id="qDiGHT9fKr-F-e3usDwU-51" value="" style="rounded=1;arcSize=1;dashed=1;fillColor=none;gradientColor=none;dashPattern=1 1;strokeWidth=1;" vertex="1" parent="qDiGHT9fKr-F-e3usDwU-50">
          <mxGeometry width="705" height="96" as="geometry" />
        </mxCell>
        <mxCell id="qDiGHT9fKr-F-e3usDwU-56" value="Auto Scaling Group" style="text;html=1;align=center;verticalAlign=middle;whiteSpace=wrap;rounded=0;" vertex="1" parent="qDiGHT9fKr-F-e3usDwU-50">
          <mxGeometry x="290.75" y="4" width="123.5" height="30" as="geometry" />
        </mxCell>
        <mxCell id="qDiGHT9fKr-F-e3usDwU-91" value="" style="group" vertex="1" connectable="0" parent="qDiGHT9fKr-F-e3usDwU-24">
          <mxGeometry x="308.5" y="185" width="60" height="82" as="geometry" />
        </mxCell>
        <mxCell id="qDiGHT9fKr-F-e3usDwU-14" value="" style="sketch=0;points=[[0,0,0],[0.25,0,0],[0.5,0,0],[0.75,0,0],[1,0,0],[0,1,0],[0.25,1,0],[0.5,1,0],[0.75,1,0],[1,1,0],[0,0.25,0],[0,0.5,0],[0,0.75,0],[1,0.25,0],[1,0.5,0],[1,0.75,0]];outlineConnect=0;fontColor=#232F3E;fillColor=#ED7100;strokeColor=#ffffff;dashed=0;verticalLabelPosition=bottom;verticalAlign=top;align=center;html=1;fontSize=12;fontStyle=0;aspect=fixed;shape=mxgraph.aws4.resourceIcon;resIcon=mxgraph.aws4.eks;" vertex="1" parent="qDiGHT9fKr-F-e3usDwU-91">
          <mxGeometry x="1.5" width="57" height="57" as="geometry" />
        </mxCell>
        <mxCell id="qDiGHT9fKr-F-e3usDwU-88" value="EKS" style="text;html=1;align=center;verticalAlign=middle;whiteSpace=wrap;rounded=0;" vertex="1" parent="qDiGHT9fKr-F-e3usDwU-91">
          <mxGeometry y="52" width="60" height="30" as="geometry" />
        </mxCell>
        <mxCell id="qDiGHT9fKr-F-e3usDwU-60" style="edgeStyle=orthogonalEdgeStyle;rounded=0;orthogonalLoop=1;jettySize=auto;html=1;entryX=0.25;entryY=0;entryDx=0;entryDy=0;" edge="1" parent="qDiGHT9fKr-F-e3usDwU-4" source="qDiGHT9fKr-F-e3usDwU-37" target="qDiGHT9fKr-F-e3usDwU-11">
          <mxGeometry relative="1" as="geometry" />
        </mxCell>
        <mxCell id="qDiGHT9fKr-F-e3usDwU-61" style="edgeStyle=orthogonalEdgeStyle;rounded=0;orthogonalLoop=1;jettySize=auto;html=1;" edge="1" parent="qDiGHT9fKr-F-e3usDwU-4" source="qDiGHT9fKr-F-e3usDwU-37" target="qDiGHT9fKr-F-e3usDwU-31">
          <mxGeometry relative="1" as="geometry" />
        </mxCell>
        <mxCell id="qDiGHT9fKr-F-e3usDwU-37" value="Ingress controller&lt;br&gt;NLB" style="outlineConnect=0;fontColor=#232F3E;gradientColor=none;fillColor=#5A30B5;strokeColor=none;dashed=0;verticalLabelPosition=bottom;verticalAlign=top;align=center;html=1;fontSize=12;fontStyle=0;aspect=fixed;pointerEvents=1;shape=mxgraph.aws4.network_load_balancer;" vertex="1" parent="qDiGHT9fKr-F-e3usDwU-4">
          <mxGeometry x="389.5000000000009" y="4.000000000000028" width="50" height="50" as="geometry" />
        </mxCell>
        <mxCell id="qDiGHT9fKr-F-e3usDwU-92" value="Account&lt;br style=&quot;font-size: 12px;&quot;&gt;Baseline" style="outlineConnect=0;fontColor=#232F3E;gradientColor=#F34482;gradientDirection=north;fillColor=#BC1356;strokeColor=#ffffff;dashed=0;verticalLabelPosition=bottom;verticalAlign=top;align=center;html=1;fontSize=12;fontStyle=0;aspect=fixed;shape=mxgraph.aws4.resourceIcon;resIcon=mxgraph.aws4.cloudformation;" vertex="1" parent="qDiGHT9fKr-F-e3usDwU-5">
          <mxGeometry x="279" y="446" width="46.44" height="46.44" as="geometry" />
        </mxCell>
        <mxCell id="qDiGHT9fKr-F-e3usDwU-93" value="Elastic Container&lt;br&gt;Registry" style="sketch=0;points=[[0,0,0],[0.25,0,0],[0.5,0,0],[0.75,0,0],[1,0,0],[0,1,0],[0.25,1,0],[0.5,1,0],[0.75,1,0],[1,1,0],[0,0.25,0],[0,0.5,0],[0,0.75,0],[1,0.25,0],[1,0.5,0],[1,0.75,0]];outlineConnect=0;fontColor=#232F3E;gradientColor=#F78E04;gradientDirection=north;fillColor=#D05C17;strokeColor=#ffffff;dashed=0;verticalLabelPosition=bottom;verticalAlign=top;align=center;html=1;fontSize=12;fontStyle=0;aspect=fixed;shape=mxgraph.aws4.resourceIcon;resIcon=mxgraph.aws4.ecr;" vertex="1" parent="qDiGHT9fKr-F-e3usDwU-5">
          <mxGeometry x="194" y="444" width="47" height="47" as="geometry" />
        </mxCell>
        <mxCell id="qDiGHT9fKr-F-e3usDwU-94" value="Route Table" style="outlineConnect=0;fontColor=#232F3E;gradientColor=none;fillColor=#5A30B5;strokeColor=none;dashed=0;verticalLabelPosition=bottom;verticalAlign=top;align=center;html=1;fontSize=12;fontStyle=0;aspect=fixed;pointerEvents=1;shape=mxgraph.aws4.route_table;" vertex="1" parent="qDiGHT9fKr-F-e3usDwU-5">
          <mxGeometry x="104.5" y="444" width="47" height="45.8" as="geometry" />
        </mxCell>
        <mxCell id="qDiGHT9fKr-F-e3usDwU-95" value="Flow Logs" style="sketch=0;outlineConnect=0;fontColor=#232F3E;gradientColor=none;fillColor=#4D27AA;strokeColor=none;dashed=0;verticalLabelPosition=bottom;verticalAlign=top;align=center;html=1;fontSize=12;fontStyle=0;aspect=fixed;pointerEvents=1;shape=mxgraph.aws4.flow_logs;" vertex="1" parent="qDiGHT9fKr-F-e3usDwU-5">
          <mxGeometry x="29" y="443" width="47" height="47" as="geometry" />
        </mxCell>
        <mxCell id="qDiGHT9fKr-F-e3usDwU-96" value="S3" style="sketch=0;points=[[0,0,0],[0.25,0,0],[0.5,0,0],[0.75,0,0],[1,0,0],[0,1,0],[0.25,1,0],[0.5,1,0],[0.75,1,0],[1,1,0],[0,0.25,0],[0,0.5,0],[0,0.75,0],[1,0.25,0],[1,0.5,0],[1,0.75,0]];outlineConnect=0;fontColor=#232F3E;gradientColor=#60A337;gradientDirection=north;fillColor=#277116;strokeColor=#ffffff;dashed=0;verticalLabelPosition=bottom;verticalAlign=top;align=center;html=1;fontSize=12;fontStyle=0;aspect=fixed;shape=mxgraph.aws4.resourceIcon;resIcon=mxgraph.aws4.s3;" vertex="1" parent="qDiGHT9fKr-F-e3usDwU-5">
          <mxGeometry x="354" y="447.51" width="46.44" height="46.44" as="geometry" />
        </mxCell>
        <mxCell id="qDiGHT9fKr-F-e3usDwU-97" value="AWS KMS" style="sketch=0;points=[[0,0,0],[0.25,0,0],[0.5,0,0],[0.75,0,0],[1,0,0],[0,1,0],[0.25,1,0],[0.5,1,0],[0.75,1,0],[1,1,0],[0,0.25,0],[0,0.5,0],[0,0.75,0],[1,0.25,0],[1,0.5,0],[1,0.75,0]];outlineConnect=0;fontColor=#232F3E;gradientColor=#F54749;gradientDirection=north;fillColor=#C7131F;strokeColor=#ffffff;dashed=0;verticalLabelPosition=bottom;verticalAlign=top;align=center;html=1;fontSize=12;fontStyle=0;aspect=fixed;shape=mxgraph.aws4.resourceIcon;resIcon=mxgraph.aws4.key_management_service;" vertex="1" parent="qDiGHT9fKr-F-e3usDwU-5">
          <mxGeometry x="514" y="444.56" width="46.44" height="46.44" as="geometry" />
        </mxCell>
        <mxCell id="qDiGHT9fKr-F-e3usDwU-98" value="Secrets Manager" style="sketch=0;points=[[0,0,0],[0.25,0,0],[0.5,0,0],[0.75,0,0],[1,0,0],[0,1,0],[0.25,1,0],[0.5,1,0],[0.75,1,0],[1,1,0],[0,0.25,0],[0,0.5,0],[0,0.75,0],[1,0.25,0],[1,0.5,0],[1,0.75,0]];outlineConnect=0;fontColor=#232F3E;gradientColor=#F54749;gradientDirection=north;fillColor=#C7131F;strokeColor=#ffffff;dashed=0;verticalLabelPosition=bottom;verticalAlign=top;align=center;html=1;fontSize=12;fontStyle=0;aspect=fixed;shape=mxgraph.aws4.resourceIcon;resIcon=mxgraph.aws4.secrets_manager;" vertex="1" parent="qDiGHT9fKr-F-e3usDwU-5">
          <mxGeometry x="429.27" y="445.49" width="47.45" height="47.45" as="geometry" />
        </mxCell>
        <mxCell id="qDiGHT9fKr-F-e3usDwU-21" value="" style="sketch=0;outlineConnect=0;fontColor=#232F3E;gradientColor=none;fillColor=#C925D1;strokeColor=none;dashed=0;verticalLabelPosition=bottom;verticalAlign=top;align=center;html=1;fontSize=12;fontStyle=0;aspect=fixed;pointerEvents=1;shape=mxgraph.aws4.rds_instance;" vertex="1" parent="qDiGHT9fKr-F-e3usDwU-5">
          <mxGeometry x="589" y="446.71" width="47.23" height="47.23" as="geometry" />
        </mxCell>
        <mxCell id="qDiGHT9fKr-F-e3usDwU-99" value="Internet Gatweay" style="sketch=0;outlineConnect=0;fontColor=#232F3E;gradientColor=none;fillColor=#4D27AA;strokeColor=none;dashed=0;verticalLabelPosition=bottom;verticalAlign=top;align=center;html=1;fontSize=12;fontStyle=0;aspect=fixed;pointerEvents=1;shape=mxgraph.aws4.internet_gateway;" vertex="1" parent="1">
          <mxGeometry x="-195" y="136" width="47.62" height="47.62" as="geometry" />
        </mxCell>
        <mxCell id="qDiGHT9fKr-F-e3usDwU-100" style="edgeStyle=orthogonalEdgeStyle;rounded=0;orthogonalLoop=1;jettySize=auto;html=1;" edge="1" parent="1" source="qDiGHT9fKr-F-e3usDwU-37" target="qDiGHT9fKr-F-e3usDwU-99">
          <mxGeometry relative="1" as="geometry">
            <Array as="points">
              <mxPoint x="-540" y="160" />
            </Array>
          </mxGeometry>
        </mxCell>
      </root>
    </mxGraphModel>
  </diagram>
</mxfile>
